<svg width="118" height="55" viewBox="0 0 118 55" fill="none" xmlns="http://www.w3.org/2000/svg">
<path fill-rule="evenodd" clip-rule="evenodd" d="M11.713 8.26808C8.59516 10.8187 6.13439 15.1164 6.13439 22.2291C6.13439 28.6746 8.98177 34.3328 12.589 39.0309C15.8242 43.2444 19.5875 46.5827 22.2871 48.9553C23.5513 47.8779 25.2567 46.0834 26.9298 43.8978C29.0194 41.1682 30.9313 37.993 31.8348 35.0956C32.2678 33.7068 32.4288 32.0905 32.3461 30.391C31.7537 30.6995 31.1427 30.9686 30.5214 31.1988C25.9731 32.8843 20.4815 32.6408 17.1475 30.2878C14.8829 28.6896 13.4609 26.3715 13.245 23.8409C13.0274 21.2904 14.0506 18.7051 16.3257 16.6368C20.7782 12.5891 26.8826 13.6888 29.8403 16.6919C31.9056 18.7888 33.4849 21.8914 34.3863 25.1462C35.6213 23.6125 36.3744 21.657 36.3744 19.2572C36.3744 14.1093 34.4232 10.5233 31.7403 8.20525C29.0216 5.85626 25.4708 4.74304 22.2285 4.74304C18.9146 4.74304 14.8849 5.67314 11.713 8.26808ZM35.0731 28.5538C37.543 26.4236 39.2544 23.3451 39.2544 19.2572C39.2544 13.2998 36.9597 8.9087 33.6232 6.02599C30.3225 3.17423 26.0804 1.86304 22.2285 1.86304C18.4483 1.86304 13.7109 2.91259 9.88936 6.03898C6.01363 9.20968 3.25439 14.375 3.25439 22.2291C3.25439 29.5481 6.48787 35.8138 10.3046 40.7848C13.798 45.3345 17.8664 48.9068 20.5687 51.2795C20.8162 51.4967 21.0522 51.704 21.2753 51.901L22.1164 52.6438L23.0422 52.0097C24.6694 50.8953 27.0357 48.4974 29.2166 45.6484C31.4073 42.7868 33.5394 39.3039 34.5842 35.9529C35.2884 33.6946 35.3966 31.1089 35.0731 28.5538ZM31.9467 27.3035C31.8806 26.9847 31.807 26.666 31.726 26.3483C30.9371 23.253 29.5002 20.4508 27.7884 18.7128C25.8017 16.6956 21.4555 15.8656 18.263 18.7678C16.5781 20.2996 15.9814 22.0342 16.1146 23.596C16.2496 25.1777 17.1493 26.7641 18.8081 27.9348C21.1407 29.581 25.5674 29.9632 29.5207 28.4982C30.3794 28.18 31.196 27.7824 31.9467 27.3035Z" fill="#FFBF29"/>
<path d="M78.5781 10.0862V25.245H82.2162V29.4136H78.5781V44.2559H74.0305V10.0862H78.5781ZM52.6945 11.0715H64.4804C65.9963 11.0715 67.2722 11.5136 68.308 12.3979C69.3439 13.2821 69.9124 14.5454 70.0134 16.1876C70.0892 20.5331 69.5713 24.2217 68.4596 27.2535C67.3733 30.2853 65.5037 32.7865 62.8509 34.7571C60.1981 36.7278 56.6105 38.1552 52.0881 39.0395L51.2544 34.9466C54.9178 34.2392 57.7853 33.1275 59.857 31.6117C61.954 30.0958 63.4193 28.1125 64.2531 25.6618C65.1121 23.2112 65.5163 20.1036 65.4658 16.3392C65.4405 15.8844 65.3521 15.5939 65.2005 15.4675C65.0742 15.3159 64.8342 15.2402 64.4804 15.2402H52.6945V11.0715Z" fill="#FFBF29"/>
<path d="M91.7038 17.7035C91.7038 18.3351 92.4744 18.8277 94.0155 19.1814C95.5567 19.5099 97.3757 19.6741 99.4727 19.6741C100.231 19.6741 100.799 19.6615 101.178 19.6362C103.073 19.5351 104.462 19.3204 105.347 18.992C106.256 18.6382 106.787 18.1709 106.938 17.5898C105.22 17.2361 103.376 16.9455 101.405 16.7181C99.4601 16.4655 97.7294 16.3392 96.2136 16.3392C94.824 16.3392 93.725 16.4529 92.9165 16.6802C92.1081 16.8824 91.7038 17.2234 91.7038 17.7035ZM114.745 29.4136H83.9728V25.245H97.2747V23.8049C94.2934 23.628 91.8554 23.0596 89.9606 22.0995C88.091 21.1395 87.1562 19.6741 87.1562 17.7035V9.93457H91.7038V12.7389C93.0934 12.36 94.8114 12.1705 96.8578 12.1705C99.9401 12.1705 103.326 12.5495 107.014 13.3074V10.2756H111.562V17.135C111.562 21.1773 108.189 23.4006 101.443 23.8049V25.245H114.745V29.4136ZM87.5351 31.0053H111.183V44.5724H94.1671C92.3481 44.5724 90.8953 44.105 89.809 43.1702C88.7479 42.2607 88.2173 40.9596 88.2173 39.2668C88.2173 38.8121 88.2552 38.3447 88.331 37.8647C88.6089 36.8793 88.9247 35.9824 89.2784 35.174H87.5351V31.0053ZM92.727 39.4563C92.727 39.8353 92.8281 40.088 93.0302 40.2143C93.2576 40.3406 93.6366 40.4038 94.1671 40.4038H106.635V35.174H94.205C93.5734 36.4119 93.106 37.5741 92.8028 38.6605L92.727 39.4563Z" fill="#FFBF29"/>
</svg>
