<svg width="32" height="32" viewBox="0 0 32 32" fill="none" xmlns="http://www.w3.org/2000/svg">
<rect width="32" height="32" rx="4" fill="#8546E3"/>
<path fill-rule="evenodd" clip-rule="evenodd" d="M16.4868 2.73877C14.5159 2.73877 12.0244 3.28422 10.0008 4.93969C7.93131 6.63272 6.5 9.36598 6.5 13.4215C6.5 17.2326 8.18376 20.4708 10.1284 23.0036C11.9049 25.3173 13.9691 27.1297 15.3191 28.315L15.3191 28.315L15.3275 28.3224L15.3314 28.3259C15.4536 28.4332 15.5696 28.5351 15.6792 28.6318L16.3918 29.2611L17.1762 28.724C18.0525 28.1238 19.2732 26.8778 20.3778 25.4348C21.4907 23.9811 22.5949 22.1862 23.1418 20.4321C23.4957 19.2971 23.5648 18.0283 23.4352 16.7834C24.6636 15.6388 25.4995 14.0243 25.4995 11.9356C25.4995 8.81649 24.2926 6.48121 22.5109 4.94185C20.7595 3.42868 18.5185 2.73877 16.4868 2.73877ZM11.5458 6.8282C13.019 5.62297 14.911 5.17873 16.4868 5.17873C18.002 5.17873 19.6573 5.70092 20.9157 6.78814C22.1437 7.84912 23.0596 9.50231 23.0596 11.9356C23.0596 12.6036 22.9318 13.1882 22.707 13.6966C22.2227 12.3988 21.5247 11.1914 20.6489 10.3021C19.0023 8.6303 15.6449 8.03209 13.1992 10.2555C11.9594 11.3826 11.3735 12.8228 11.497 14.2699C11.619 15.7001 12.4208 16.9861 13.6581 17.8593C15.4992 19.1587 18.4299 19.2559 20.8069 18.3751C20.8875 18.3452 20.9678 18.3141 21.0477 18.2818C21.0234 18.7994 20.945 19.2806 20.8125 19.7058C20.3853 21.0757 19.4676 22.6098 18.4404 23.9517C17.7584 24.8425 17.0704 25.5939 16.5134 26.1155C15.2025 24.9573 13.5217 23.4166 12.0637 21.5177C10.2966 19.2162 8.93996 16.4926 8.93996 13.4215C8.93996 9.99416 10.1184 7.99592 11.5458 6.8282ZM14.8405 12.0609C16.2191 10.8076 18.0869 11.1781 18.9105 12.0143C19.687 12.8027 20.3714 14.1154 20.7509 15.6045C20.7602 15.6411 20.7693 15.6777 20.7782 15.7143C20.5196 15.8567 20.2453 15.9811 19.9591 16.0872C19.0386 16.4283 18.0612 16.5544 17.182 16.4995C16.2958 16.4441 15.5496 16.2079 15.065 15.8658C14.341 15.3549 13.9816 14.6888 13.9281 14.0625C13.8761 13.4529 14.1008 12.7334 14.8405 12.0609Z" fill="#FFC132"/>
</svg>