<svg width="32" height="32" viewBox="0 0 32 32" fill="none" xmlns="http://www.w3.org/2000/svg">
<rect width="32" height="32" rx="4" fill="#FFC132"/>
<path fill-rule="evenodd" clip-rule="evenodd" d="M16.4871 2.73853C14.5161 2.73853 12.0245 3.28399 10.0009 4.9395C7.93135 6.63257 6.5 9.3659 6.5 13.4216C6.5 17.2327 8.1838 20.4711 10.1285 23.0039C11.9051 25.3177 13.9693 27.1301 15.3193 28.3155L15.3284 28.3235L15.3301 28.3249C15.4529 28.4328 15.5694 28.5351 15.6795 28.6323L16.3921 29.2616L17.1764 28.7244C18.0528 28.1242 19.2735 26.8782 20.3782 25.4351C21.491 23.9814 22.5953 22.1865 23.1422 20.4323C23.4961 19.2973 23.5652 18.0284 23.4356 16.7835C24.6641 15.6389 25.5 14.0244 25.5 11.9356C25.5 8.8164 24.293 6.48106 22.5113 4.94166C20.7599 3.42845 18.5188 2.73853 16.4871 2.73853ZM11.5459 6.82804C13.0191 5.62278 14.9112 5.17853 16.4871 5.17853C18.0023 5.17853 19.6577 5.70073 20.9161 6.78798C22.1441 7.84899 23.06 9.50223 23.06 11.9356C23.06 12.6037 22.9322 13.1883 22.7075 13.6967C22.2231 12.3988 21.5251 11.1914 20.6492 10.3021C19.0026 8.63021 15.6451 8.03199 13.1993 10.2554C11.9595 11.3826 11.3737 12.8229 11.4971 14.2699C11.6192 15.7002 12.421 16.9862 13.6582 17.8594C15.4994 19.1589 18.4302 19.2561 20.8073 18.3752C20.8878 18.3454 20.9682 18.3143 21.0481 18.2819C21.0238 18.7996 20.9454 19.2808 20.8128 19.706C20.3857 21.0759 19.4679 22.6101 18.4407 23.952C17.7587 24.8429 17.0707 25.5943 16.5136 26.1159C15.2027 24.9577 13.5219 23.4169 12.0639 21.5179C10.2967 19.2163 8.94 16.4927 8.94 13.4216C8.94 9.9941 10.1185 7.99579 11.5459 6.82804ZM14.8407 12.0609C16.2193 10.8076 18.0872 11.178 18.9108 12.0143C19.6874 12.8027 20.3718 14.1155 20.7513 15.6046C20.7606 15.6412 20.7697 15.6778 20.7786 15.7143C20.52 15.8568 20.2457 15.9812 19.9594 16.0873C19.0389 16.4284 18.0615 16.5545 17.1823 16.4996C16.2961 16.4442 15.5499 16.208 15.0652 15.8659C14.3412 15.3549 13.9817 14.6889 13.9283 14.0625C13.8763 13.4529 14.101 12.7334 14.8407 12.0609Z" fill="#8546E3"/>
</svg>