<svg width="24" height="24" viewBox="0 0 24 24" fill="none" xmlns="http://www.w3.org/2000/svg">
<path fill-rule="evenodd" clip-rule="evenodd" d="M16.618 3.51184C16.9081 3.60607 17.1299 3.76603 17.3038 3.9138C17.4599 4.04642 17.6307 4.2168 17.8054 4.3912C17.8154 4.40109 17.8253 4.41099 17.8352 4.4209L19.5987 6.18435C19.7771 6.36278 19.9509 6.53654 20.0861 6.69569C20.2343 6.87033 20.394 7.09219 20.4881 7.38191C20.6186 7.78357 20.6186 8.21624 20.4881 8.61791C20.394 8.90762 20.2343 9.12948 20.0861 9.30412C19.9509 9.46327 19.7771 9.63703 19.5987 9.81546L10.4142 18.9999H20C20.5523 18.9999 21 19.4476 21 19.9999C21 20.5522 20.5523 20.9999 20 20.9999H4C3.44772 20.9999 3 20.5522 3 19.9999V15.9999C3 15.7347 3.10536 15.4803 3.29289 15.2928L14.1854 4.40027C14.3634 4.22226 14.5369 4.04869 14.696 3.91367C14.8705 3.76551 15.0923 3.60591 15.382 3.51184M5 18.9999H7.58579L14.5858 11.9999L12 9.41412L5 16.4141V18.9999ZM13.4142 7.99991L16 10.5857L18.1619 8.4238C18.3716 8.21413 18.4858 8.09884 18.5614 8.00969C18.5643 8.00627 18.5671 8.00301 18.5697 7.99991C18.5671 7.9968 18.5643 7.99354 18.5614 7.99012C18.4858 7.90097 18.3716 7.78568 18.1619 7.57601L16.4228 5.83691C16.4225 5.83666 16.423 5.83716 16.4228 5.83691C16.2134 5.62804 16.0981 5.51378 16.0089 5.43801C16.0058 5.43532 16.0027 5.43277 15.9998 5.43036C15.9968 5.43288 15.9936 5.43556 15.9903 5.43839C15.9013 5.51393 15.7863 5.62785 15.5771 5.83701L13.4142 7.99991ZM16.618 3.51184C16.2165 3.38147 15.7835 3.38147 15.382 3.51184H16.618Z" fill="#1E1E1E"/>
</svg>
